<svg width="155" height="47" viewBox="0 0 155 47" fill="none" xmlns="http://www.w3.org/2000/svg">
<path d="M23.5 47C36.4787 47 47 36.4787 47 23.5C47 10.5213 36.4787 0 23.5 0C10.5213 0 0 10.5213 0 23.5C0 36.4787 10.5213 47 23.5 47Z" fill="white"/>
<path fill-rule="evenodd" clip-rule="evenodd" d="M12.0836 8.57418C9.57833 8.57418 7.68966 10.8509 8.1524 13.313L9.99927 23.1398C10.091 23.6281 10.091 24.1292 9.99927 24.6174L8.1524 34.4442C7.68966 36.9063 9.57832 39.183 12.0836 39.183H35.0563C37.7079 39.183 39.6257 36.6499 38.9062 34.0977L36.3313 24.964C36.1312 24.2542 36.1312 23.503 36.3313 22.7933L38.9062 13.6595C39.6257 11.1073 37.7079 8.57418 35.0563 8.57418H12.0836ZM28.5157 26.9498C28.385 26.8192 28.2357 26.7538 28.0677 26.7538C27.937 26.7538 27.811 26.8005 27.6897 26.8938C27.5777 26.9965 27.4424 27.1038 27.2837 27.2158C27.153 27.3092 26.9897 27.4025 26.7937 27.4958C26.5977 27.5891 26.355 27.6358 26.0657 27.6358C25.7204 27.6358 25.417 27.5845 25.1557 27.4818C24.8944 27.3792 24.6377 27.2578 24.3857 27.1178C24.143 26.9872 23.8864 26.8705 23.6157 26.7678C23.4555 26.7049 23.2796 26.6612 23.0878 26.6369L24.0863 26.2768C24.3955 26.2138 24.6913 26.1208 24.9737 25.9978C25.5524 25.7365 26.0517 25.3771 26.4717 24.9198C26.901 24.4625 27.2324 23.9305 27.4657 23.3238C27.699 22.7078 27.8157 22.0451 27.8157 21.3358C27.8157 20.6265 27.699 19.9685 27.4657 19.3618C27.2324 18.7458 26.901 18.2091 26.4717 17.7518C26.0517 17.2945 25.5524 16.9398 24.9737 16.6878C24.395 16.4265 23.7604 16.2958 23.0697 16.2958C22.3884 16.2958 21.7584 16.4265 21.1797 16.6878C20.601 16.9398 20.097 17.2945 19.6677 17.7518C19.2477 18.2091 18.921 18.7458 18.6877 19.3618C18.4637 19.9685 18.3517 20.6265 18.3517 21.3358C18.3517 22.0451 18.4637 22.7078 18.6877 23.3238C18.921 23.9305 19.2477 24.4625 19.6677 24.9198C20.097 25.3771 20.601 25.7365 21.1797 25.9978C21.4933 26.1344 21.8219 26.2339 22.1657 26.2965L20.6617 26.8518C20.391 26.9545 20.2557 27.1551 20.2557 27.4538C20.2557 27.6311 20.321 27.7945 20.4517 27.9438C20.5824 28.0932 20.7457 28.1678 20.9417 28.1678C21.1284 28.1678 21.2824 28.1352 21.4037 28.0698C21.525 28.0138 21.6417 27.9578 21.7537 27.9018C21.8657 27.8458 22.0104 27.8178 22.1877 27.8178C22.505 27.8178 22.7757 27.8738 22.9997 27.9858C23.233 28.0978 23.471 28.2238 23.7137 28.3638C23.9564 28.5038 24.255 28.6298 24.6097 28.7418C24.9644 28.8538 25.4264 28.9098 25.9957 28.9098C26.257 28.9098 26.5417 28.8678 26.8497 28.7838C27.167 28.7092 27.4657 28.6018 27.7457 28.4618C28.035 28.3218 28.2684 28.1632 28.4457 27.9858C28.6324 27.8085 28.7257 27.6218 28.7257 27.4258C28.7257 27.2485 28.6557 27.0898 28.5157 26.9498ZM25.8837 19.4738C26.1637 20.0245 26.3037 20.6451 26.3037 21.3358C26.3037 22.0265 26.1637 22.6472 25.8837 23.1978C25.613 23.7485 25.235 24.1825 24.7497 24.4998C24.2644 24.8172 23.7044 24.9758 23.0697 24.9758C22.4444 24.9758 21.889 24.8172 21.4037 24.4998C20.9184 24.1825 20.5404 23.7485 20.2697 23.1978C19.999 22.6472 19.8637 22.0265 19.8637 21.3358C19.8637 20.6358 19.999 20.0152 20.2697 19.4738C20.5404 18.9231 20.9184 18.4891 21.4037 18.1718C21.889 17.8545 22.4444 17.6958 23.0697 17.6958C23.7044 17.6958 24.2644 17.8545 24.7497 18.1718C25.235 18.4891 25.613 18.9231 25.8837 19.4738Z" fill="#3056D3"/>
<path d="M79.278 35.008C79.782 35.008 80.25 35.212 80.682 35.62C81.114 36.052 81.33 36.544 81.33 37.096C81.33 37.648 81.078 38.164 80.574 38.644C80.094 39.148 79.47 39.592 78.702 39.976C77.934 40.36 77.13 40.66 76.29 40.876C75.474 41.092 74.73 41.2 74.058 41.2C72.57 41.2 71.382 41.056 70.494 40.768C69.606 40.504 68.874 40.192 68.298 39.832C67.722 39.496 67.182 39.184 66.678 38.896C66.174 38.632 65.562 38.5 64.842 38.5C64.386 38.5 64.014 38.572 63.726 38.716C63.462 38.884 63.162 39.04 62.826 39.184C62.514 39.352 62.07 39.436 61.494 39.436C60.894 39.436 60.39 39.208 59.982 38.752C59.574 38.296 59.37 37.804 59.37 37.276C59.37 36.34 59.79 35.716 60.63 35.404L68.082 32.632L71.322 33.424L64.338 36.016L66.39 34.828C67.23 34.828 67.962 34.948 68.586 35.188C69.234 35.452 69.846 35.74 70.422 36.052C70.998 36.364 71.586 36.64 72.186 36.88C72.81 37.144 73.518 37.276 74.31 37.276C74.958 37.276 75.498 37.168 75.93 36.952C76.386 36.736 76.782 36.496 77.118 36.232C77.526 35.92 77.886 35.632 78.198 35.368C78.534 35.128 78.894 35.008 79.278 35.008ZM79.134 21.4C79.134 23.2 78.834 24.88 78.234 26.44C77.634 28 76.782 29.38 75.678 30.58C74.598 31.756 73.302 32.68 71.79 33.352C70.302 34.024 68.67 34.36 66.894 34.36C65.118 34.36 63.486 34.024 61.998 33.352C60.51 32.68 59.214 31.756 58.11 30.58C57.03 29.38 56.19 28 55.59 26.44C54.99 24.88 54.69 23.2 54.69 21.4C54.69 19.6 54.99 17.92 55.59 16.36C56.19 14.8 57.03 13.432 58.11 12.256C59.214 11.056 60.51 10.12 61.998 9.448C63.486 8.776 65.118 8.44 66.894 8.44C68.67 8.44 70.302 8.776 71.79 9.448C73.302 10.12 74.598 11.056 75.678 12.256C76.782 13.432 77.634 14.8 78.234 16.36C78.834 17.92 79.134 19.6 79.134 21.4ZM74.454 21.4C74.454 19.792 74.13 18.34 73.482 17.044C72.834 15.724 71.946 14.68 70.818 13.912C69.69 13.144 68.382 12.76 66.894 12.76C65.406 12.76 64.098 13.144 62.97 13.912C61.842 14.68 60.954 15.712 60.306 17.008C59.682 18.304 59.37 19.768 59.37 21.4C59.37 23.008 59.682 24.472 60.306 25.792C60.954 27.088 61.842 28.12 62.97 28.888C64.098 29.656 65.406 30.04 66.894 30.04C68.382 30.04 69.69 29.656 70.818 28.888C71.946 28.12 72.834 27.088 73.482 25.792C74.13 24.472 74.454 23.008 74.454 21.4ZM86.8338 31.804C86.8338 32.428 86.6298 32.956 86.2218 33.388C85.8138 33.796 85.2978 34 84.6738 34C84.0498 34 83.5338 33.796 83.1258 33.388C82.7178 32.956 82.5138 32.428 82.5138 31.804V16.936C82.5138 16.312 82.7178 15.796 83.1258 15.388C83.5338 14.956 84.0498 14.74 84.6738 14.74C85.2978 14.74 85.8138 14.956 86.2218 15.388C86.6298 15.796 86.8338 16.312 86.8338 16.936V31.804ZM84.6378 12.4C83.8218 12.4 83.2458 12.268 82.9098 12.004C82.5738 11.74 82.4058 11.272 82.4058 10.6V9.916C82.4058 9.22 82.5858 8.752 82.9458 8.512C83.3298 8.248 83.9058 8.116 84.6738 8.116C85.5138 8.116 86.1018 8.248 86.4378 8.512C86.7738 8.776 86.9418 9.244 86.9418 9.916V10.6C86.9418 11.296 86.7618 11.776 86.4018 12.04C86.0418 12.28 85.4538 12.4 84.6378 12.4ZM107.042 14.74C107.666 14.74 108.182 14.944 108.59 15.352C108.998 15.76 109.202 16.288 109.202 16.936V39.004C109.202 39.628 108.998 40.144 108.59 40.552C108.182 40.984 107.666 41.2 107.042 41.2C106.418 41.2 105.902 40.984 105.494 40.552C105.086 40.144 104.882 39.628 104.882 39.004V30.04L105.674 30.364C105.674 30.676 105.506 31.06 105.17 31.516C104.834 31.948 104.378 32.38 103.802 32.812C103.226 33.244 102.542 33.616 101.75 33.928C100.982 34.216 100.142 34.36 99.2296 34.36C97.5736 34.36 96.0736 33.94 94.7296 33.1C93.3856 32.236 92.3176 31.06 91.5256 29.572C90.7576 28.06 90.3736 26.332 90.3736 24.388C90.3736 22.42 90.7576 20.692 91.5256 19.204C92.3176 17.692 93.3736 16.516 94.6936 15.676C96.0136 14.812 97.4776 14.38 99.0856 14.38C100.118 14.38 101.066 14.536 101.93 14.848C102.794 15.16 103.538 15.556 104.162 16.036C104.81 16.516 105.302 17.008 105.638 17.512C105.998 17.992 106.178 18.4 106.178 18.736L104.882 19.204V16.936C104.882 16.312 105.086 15.796 105.494 15.388C105.902 14.956 106.418 14.74 107.042 14.74ZM99.7696 30.4C100.826 30.4 101.75 30.136 102.542 29.608C103.334 29.08 103.946 28.36 104.378 27.448C104.834 26.536 105.062 25.516 105.062 24.388C105.062 23.236 104.834 22.204 104.378 21.292C103.946 20.38 103.334 19.66 102.542 19.132C101.75 18.604 100.826 18.34 99.7696 18.34C98.7376 18.34 97.8256 18.604 97.0336 19.132C96.2416 19.66 95.6176 20.38 95.1616 21.292C94.7296 22.204 94.5136 23.236 94.5136 24.388C94.5136 25.516 94.7296 26.536 95.1616 27.448C95.6176 28.36 96.2416 29.08 97.0336 29.608C97.8256 30.136 98.7376 30.4 99.7696 30.4ZM129.647 14.38C130.271 14.38 130.787 14.584 131.195 14.992C131.603 15.4 131.807 15.928 131.807 16.576V31.804C131.807 32.428 131.603 32.956 131.195 33.388C130.787 33.796 130.271 34 129.647 34C129.023 34 128.507 33.796 128.099 33.388C127.691 32.956 127.487 32.428 127.487 31.804V30.04L128.279 30.364C128.279 30.676 128.111 31.06 127.775 31.516C127.439 31.948 126.983 32.38 126.407 32.812C125.831 33.244 125.147 33.616 124.355 33.928C123.587 34.216 122.747 34.36 121.835 34.36C120.179 34.36 118.679 33.94 117.335 33.1C115.991 32.236 114.923 31.06 114.131 29.572C113.363 28.06 112.979 26.332 112.979 24.388C112.979 22.42 113.363 20.692 114.131 19.204C114.923 17.692 115.979 16.516 117.299 15.676C118.619 14.812 120.083 14.38 121.691 14.38C122.723 14.38 123.671 14.536 124.535 14.848C125.399 15.16 126.143 15.556 126.767 16.036C127.415 16.516 127.907 17.008 128.243 17.512C128.603 17.992 128.783 18.4 128.783 18.736L127.487 19.204V16.576C127.487 15.952 127.691 15.436 128.099 15.028C128.507 14.596 129.023 14.38 129.647 14.38ZM122.375 30.4C123.431 30.4 124.355 30.136 125.147 29.608C125.939 29.08 126.551 28.36 126.983 27.448C127.439 26.536 127.667 25.516 127.667 24.388C127.667 23.236 127.439 22.204 126.983 21.292C126.551 20.38 125.939 19.66 125.147 19.132C124.355 18.604 123.431 18.34 122.375 18.34C121.343 18.34 120.431 18.604 119.639 19.132C118.847 19.66 118.223 20.38 117.767 21.292C117.335 22.204 117.119 23.236 117.119 24.388C117.119 25.516 117.335 26.536 117.767 27.448C118.223 28.36 118.847 29.08 119.639 29.608C120.431 30.136 121.343 30.4 122.375 30.4ZM152.253 7.36C152.877 7.36 153.393 7.564 153.801 7.972C154.209 8.38 154.413 8.908 154.413 9.556V31.804C154.413 32.428 154.209 32.956 153.801 33.388C153.393 33.796 152.877 34 152.253 34C151.629 34 151.113 33.796 150.705 33.388C150.297 32.956 150.093 32.428 150.093 31.804V30.04L150.885 30.364C150.885 30.676 150.717 31.06 150.381 31.516C150.045 31.948 149.589 32.38 149.013 32.812C148.437 33.244 147.753 33.616 146.961 33.928C146.193 34.216 145.353 34.36 144.441 34.36C142.785 34.36 141.285 33.94 139.941 33.1C138.597 32.236 137.529 31.06 136.737 29.572C135.969 28.06 135.585 26.332 135.585 24.388C135.585 22.42 135.969 20.692 136.737 19.204C137.529 17.692 138.585 16.516 139.905 15.676C141.225 14.812 142.689 14.38 144.297 14.38C145.329 14.38 146.277 14.536 147.141 14.848C148.005 15.16 148.749 15.556 149.373 16.036C150.021 16.516 150.513 17.008 150.849 17.512C151.209 17.992 151.389 18.4 151.389 18.736L150.093 19.204V9.556C150.093 8.932 150.297 8.416 150.705 8.008C151.113 7.576 151.629 7.36 152.253 7.36ZM144.981 30.4C146.037 30.4 146.961 30.136 147.753 29.608C148.545 29.08 149.157 28.36 149.589 27.448C150.045 26.536 150.273 25.516 150.273 24.388C150.273 23.236 150.045 22.204 149.589 21.292C149.157 20.38 148.545 19.66 147.753 19.132C146.961 18.604 146.037 18.34 144.981 18.34C143.949 18.34 143.037 18.604 142.245 19.132C141.453 19.66 140.829 20.38 140.373 21.292C139.941 22.204 139.725 23.236 139.725 24.388C139.725 25.516 139.941 26.536 140.373 27.448C140.829 28.36 141.453 29.08 142.245 29.608C143.037 30.136 143.949 30.4 144.981 30.4Z" fill="#3056D3"/>
</svg>
