<svg width="173" height="48" viewBox="0 0 173 48" fill="none" xmlns="http://www.w3.org/2000/svg">
<path d="M23.5 48C36.4787 48 47 37.4787 47 24.5C47 11.5213 36.4787 1 23.5 1C10.5213 1 0 11.5213 0 24.5C0 37.4787 10.5213 48 23.5 48Z" fill="white"/>
<path fill-rule="evenodd" clip-rule="evenodd" d="M12.0836 9.57418C9.57833 9.57418 7.68966 11.8509 8.1524 14.313L9.99927 24.1398C10.091 24.6281 10.091 25.1292 9.99927 25.6174L8.1524 35.4442C7.68966 37.9063 9.57833 40.183 12.0836 40.183H35.0563C37.7079 40.183 39.6257 37.6499 38.9062 35.0977L36.3313 25.964C36.1312 25.2542 36.1312 24.503 36.3313 23.7933L38.9062 14.6595C39.6257 12.1073 37.708 9.57418 35.0563 9.57418H12.0836ZM28.5157 27.9498C28.385 27.8192 28.2357 27.7538 28.0677 27.7538C27.937 27.7538 27.811 27.8005 27.6897 27.8938C27.5777 27.9965 27.4424 28.1038 27.2837 28.2158C27.153 28.3092 26.9897 28.4025 26.7937 28.4958C26.5977 28.5891 26.355 28.6358 26.0657 28.6358C25.7204 28.6358 25.417 28.5845 25.1557 28.4818C24.8944 28.3792 24.6377 28.2578 24.3857 28.1178C24.143 27.9872 23.8864 27.8705 23.6157 27.7678C23.4555 27.7049 23.2796 27.6612 23.0878 27.6369L24.0864 27.2768C24.3955 27.2138 24.6913 27.1208 24.9737 26.9978C25.5524 26.7365 26.0517 26.3771 26.4717 25.9198C26.901 25.4625 27.2324 24.9305 27.4657 24.3238C27.699 23.7078 27.8157 23.0451 27.8157 22.3358C27.8157 21.6265 27.699 20.9685 27.4657 20.3618C27.2324 19.7458 26.901 19.2091 26.4717 18.7518C26.0517 18.2945 25.5524 17.9398 24.9737 17.6878C24.395 17.4265 23.7604 17.2958 23.0697 17.2958C22.3884 17.2958 21.7584 17.4265 21.1797 17.6878C20.601 17.9398 20.097 18.2945 19.6677 18.7518C19.2477 19.2091 18.921 19.7458 18.6877 20.3618C18.4637 20.9685 18.3517 21.6265 18.3517 22.3358C18.3517 23.0451 18.4637 23.7078 18.6877 24.3238C18.921 24.9305 19.2477 25.4625 19.6677 25.9198C20.097 26.3771 20.601 26.7365 21.1797 26.9978C21.4933 27.1344 21.8219 27.2339 22.1657 27.2965L20.6617 27.8518C20.391 27.9545 20.2557 28.1551 20.2557 28.4538C20.2557 28.6311 20.321 28.7945 20.4517 28.9438C20.5824 29.0932 20.7457 29.1678 20.9417 29.1678C21.1284 29.1678 21.2824 29.1352 21.4037 29.0698C21.525 29.0138 21.6417 28.9578 21.7537 28.9018C21.8657 28.8458 22.0104 28.8178 22.1877 28.8178C22.505 28.8178 22.7757 28.8738 22.9997 28.9858C23.233 29.0978 23.471 29.2238 23.7137 29.3638C23.9564 29.5038 24.255 29.6298 24.6097 29.7418C24.9644 29.8538 25.4264 29.9098 25.9957 29.9098C26.257 29.9098 26.5417 29.8678 26.8497 29.7838C27.167 29.7092 27.4657 29.6018 27.7457 29.4618C28.035 29.3218 28.2684 29.1632 28.4457 28.9858C28.6324 28.8085 28.7257 28.6218 28.7257 28.4258C28.7257 28.2485 28.6557 28.0898 28.5157 27.9498ZM25.8837 20.4738C26.1637 21.0245 26.3037 21.6451 26.3037 22.3358C26.3037 23.0265 26.1637 23.6472 25.8837 24.1978C25.613 24.7485 25.235 25.1825 24.7497 25.4998C24.2644 25.8172 23.7044 25.9758 23.0697 25.9758C22.4444 25.9758 21.889 25.8172 21.4037 25.4998C20.9184 25.1825 20.5404 24.7485 20.2697 24.1978C19.999 23.6472 19.8637 23.0265 19.8637 22.3358C19.8637 21.6358 19.999 21.0152 20.2697 20.4738C20.5404 19.9231 20.9184 19.4891 21.4037 19.1718C21.889 18.8545 22.4444 18.6958 23.0697 18.6958C23.7044 18.6958 24.2644 18.8545 24.7497 19.1718C25.235 19.4891 25.613 19.9231 25.8837 20.4738Z" fill="#3056D3"/>
<path d="M79.278 36.008C79.782 36.008 80.25 36.212 80.682 36.62C81.114 37.052 81.33 37.544 81.33 38.096C81.33 38.648 81.078 39.164 80.574 39.644C80.094 40.148 79.47 40.592 78.702 40.976C77.934 41.36 77.13 41.66 76.29 41.876C75.474 42.092 74.73 42.2 74.058 42.2C72.57 42.2 71.382 42.056 70.494 41.768C69.606 41.504 68.874 41.192 68.298 40.832C67.722 40.496 67.182 40.184 66.678 39.896C66.174 39.632 65.562 39.5 64.842 39.5C64.386 39.5 64.014 39.572 63.726 39.716C63.462 39.884 63.162 40.04 62.826 40.184C62.514 40.352 62.07 40.436 61.494 40.436C60.894 40.436 60.39 40.208 59.982 39.752C59.574 39.296 59.37 38.804 59.37 38.276C59.37 37.34 59.79 36.716 60.63 36.404L68.082 33.632L71.322 34.424L64.338 37.016L66.39 35.828C67.23 35.828 67.962 35.948 68.586 36.188C69.234 36.452 69.846 36.74 70.422 37.052C70.998 37.364 71.586 37.64 72.186 37.88C72.81 38.144 73.518 38.276 74.31 38.276C74.958 38.276 75.498 38.168 75.93 37.952C76.386 37.736 76.782 37.496 77.118 37.232C77.526 36.92 77.886 36.632 78.198 36.368C78.534 36.128 78.894 36.008 79.278 36.008ZM79.134 22.4C79.134 24.2 78.834 25.88 78.234 27.44C77.634 29 76.782 30.38 75.678 31.58C74.598 32.756 73.302 33.68 71.79 34.352C70.302 35.024 68.67 35.36 66.894 35.36C65.118 35.36 63.486 35.024 61.998 34.352C60.51 33.68 59.214 32.756 58.11 31.58C57.03 30.38 56.19 29 55.59 27.44C54.99 25.88 54.69 24.2 54.69 22.4C54.69 20.6 54.99 18.92 55.59 17.36C56.19 15.8 57.03 14.432 58.11 13.256C59.214 12.056 60.51 11.12 61.998 10.448C63.486 9.776 65.118 9.44 66.894 9.44C68.67 9.44 70.302 9.776 71.79 10.448C73.302 11.12 74.598 12.056 75.678 13.256C76.782 14.432 77.634 15.8 78.234 17.36C78.834 18.92 79.134 20.6 79.134 22.4ZM74.454 22.4C74.454 20.792 74.13 19.34 73.482 18.044C72.834 16.724 71.946 15.68 70.818 14.912C69.69 14.144 68.382 13.76 66.894 13.76C65.406 13.76 64.098 14.144 62.97 14.912C61.842 15.68 60.954 16.712 60.306 18.008C59.682 19.304 59.37 20.768 59.37 22.4C59.37 24.008 59.682 25.472 60.306 26.792C60.954 28.088 61.842 29.12 62.97 29.888C64.098 30.656 65.406 31.04 66.894 31.04C68.382 31.04 69.69 30.656 70.818 29.888C71.946 29.12 72.834 28.088 73.482 26.792C74.13 25.472 74.454 24.008 74.454 22.4ZM86.8338 32.804C86.8338 33.428 86.6298 33.956 86.2218 34.388C85.8138 34.796 85.2978 35 84.6738 35C84.0498 35 83.5338 34.796 83.1258 34.388C82.7178 33.956 82.5138 33.428 82.5138 32.804V17.936C82.5138 17.312 82.7178 16.796 83.1258 16.388C83.5338 15.956 84.0498 15.74 84.6738 15.74C85.2978 15.74 85.8138 15.956 86.2218 16.388C86.6298 16.796 86.8338 17.312 86.8338 17.936V32.804ZM84.6378 13.4C83.8218 13.4 83.2458 13.268 82.9098 13.004C82.5738 12.74 82.4058 12.272 82.4058 11.6V10.916C82.4058 10.22 82.5858 9.752 82.9458 9.512C83.3298 9.248 83.9058 9.116 84.6738 9.116C85.5138 9.116 86.1018 9.248 86.4378 9.512C86.7738 9.776 86.9418 10.244 86.9418 10.916V11.6C86.9418 12.296 86.7618 12.776 86.4018 13.04C86.0418 13.28 85.4538 13.4 84.6378 13.4ZM107.042 15.74C107.666 15.74 108.182 15.944 108.59 16.352C108.998 16.76 109.202 17.288 109.202 17.936V40.004C109.202 40.628 108.998 41.144 108.59 41.552C108.182 41.984 107.666 42.2 107.042 42.2C106.418 42.2 105.902 41.984 105.494 41.552C105.086 41.144 104.882 40.628 104.882 40.004V31.04L105.674 31.364C105.674 31.676 105.506 32.06 105.17 32.516C104.834 32.948 104.378 33.38 103.802 33.812C103.226 34.244 102.542 34.616 101.75 34.928C100.982 35.216 100.142 35.36 99.2296 35.36C97.5736 35.36 96.0736 34.94 94.7296 34.1C93.3856 33.236 92.3176 32.06 91.5256 30.572C90.7576 29.06 90.3736 27.332 90.3736 25.388C90.3736 23.42 90.7576 21.692 91.5256 20.204C92.3176 18.692 93.3736 17.516 94.6936 16.676C96.0136 15.812 97.4776 15.38 99.0856 15.38C100.118 15.38 101.066 15.536 101.93 15.848C102.794 16.16 103.538 16.556 104.162 17.036C104.81 17.516 105.302 18.008 105.638 18.512C105.998 18.992 106.178 19.4 106.178 19.736L104.882 20.204V17.936C104.882 17.312 105.086 16.796 105.494 16.388C105.902 15.956 106.418 15.74 107.042 15.74ZM99.7696 31.4C100.826 31.4 101.75 31.136 102.542 30.608C103.334 30.08 103.946 29.36 104.378 28.448C104.834 27.536 105.062 26.516 105.062 25.388C105.062 24.236 104.834 23.204 104.378 22.292C103.946 21.38 103.334 20.66 102.542 20.132C101.75 19.604 100.826 19.34 99.7696 19.34C98.7376 19.34 97.8256 19.604 97.0336 20.132C96.2416 20.66 95.6176 21.38 95.1616 22.292C94.7296 23.204 94.5136 24.236 94.5136 25.388C94.5136 26.516 94.7296 27.536 95.1616 28.448C95.6176 29.36 96.2416 30.08 97.0336 30.608C97.8256 31.136 98.7376 31.4 99.7696 31.4ZM129.647 15.38C130.271 15.38 130.787 15.584 131.195 15.992C131.603 16.4 131.807 16.928 131.807 17.576V32.804C131.807 33.428 131.603 33.956 131.195 34.388C130.787 34.796 130.271 35 129.647 35C129.023 35 128.507 34.796 128.099 34.388C127.691 33.956 127.487 33.428 127.487 32.804V31.04L128.279 31.364C128.279 31.676 128.111 32.06 127.775 32.516C127.439 32.948 126.983 33.38 126.407 33.812C125.831 34.244 125.147 34.616 124.355 34.928C123.587 35.216 122.747 35.36 121.835 35.36C120.179 35.36 118.679 34.94 117.335 34.1C115.991 33.236 114.923 32.06 114.131 30.572C113.363 29.06 112.979 27.332 112.979 25.388C112.979 23.42 113.363 21.692 114.131 20.204C114.923 18.692 115.979 17.516 117.299 16.676C118.619 15.812 120.083 15.38 121.691 15.38C122.723 15.38 123.671 15.536 124.535 15.848C125.399 16.16 126.143 16.556 126.767 17.036C127.415 17.516 127.907 18.008 128.243 18.512C128.603 18.992 128.783 19.4 128.783 19.736L127.487 20.204V17.576C127.487 16.952 127.691 16.436 128.099 16.028C128.507 15.596 129.023 15.38 129.647 15.38ZM122.375 31.4C123.431 31.4 124.355 31.136 125.147 30.608C125.939 30.08 126.551 29.36 126.983 28.448C127.439 27.536 127.667 26.516 127.667 25.388C127.667 24.236 127.439 23.204 126.983 22.292C126.551 21.38 125.939 20.66 125.147 20.132C124.355 19.604 123.431 19.34 122.375 19.34C121.343 19.34 120.431 19.604 119.639 20.132C118.847 20.66 118.223 21.38 117.767 22.292C117.335 23.204 117.119 24.236 117.119 25.388C117.119 26.516 117.335 27.536 117.767 28.448C118.223 29.36 118.847 30.08 119.639 30.608C120.431 31.136 121.343 31.4 122.375 31.4ZM152.253 8.36C152.877 8.36 153.393 8.564 153.801 8.972C154.209 9.38 154.413 9.908 154.413 10.556V32.804C154.413 33.428 154.209 33.956 153.801 34.388C153.393 34.796 152.877 35 152.253 35C151.629 35 151.113 34.796 150.705 34.388C150.297 33.956 150.093 33.428 150.093 32.804V31.04L150.885 31.364C150.885 31.676 150.717 32.06 150.381 32.516C150.045 32.948 149.589 33.38 149.013 33.812C148.437 34.244 147.753 34.616 146.961 34.928C146.193 35.216 145.353 35.36 144.441 35.36C142.785 35.36 141.285 34.94 139.941 34.1C138.597 33.236 137.529 32.06 136.737 30.572C135.969 29.06 135.585 27.332 135.585 25.388C135.585 23.42 135.969 21.692 136.737 20.204C137.529 18.692 138.585 17.516 139.905 16.676C141.225 15.812 142.689 15.38 144.297 15.38C145.329 15.38 146.277 15.536 147.141 15.848C148.005 16.16 148.749 16.556 149.373 17.036C150.021 17.516 150.513 18.008 150.849 18.512C151.209 18.992 151.389 19.4 151.389 19.736L150.093 20.204V10.556C150.093 9.932 150.297 9.416 150.705 9.008C151.113 8.576 151.629 8.36 152.253 8.36ZM144.981 31.4C146.037 31.4 146.961 31.136 147.753 30.608C148.545 30.08 149.157 29.36 149.589 28.448C150.045 27.536 150.273 26.516 150.273 25.388C150.273 24.236 150.045 23.204 149.589 22.292C149.157 21.38 148.545 20.66 147.753 20.132C146.961 19.604 146.037 19.34 144.981 19.34C143.949 19.34 143.037 19.604 142.245 20.132C141.453 20.66 140.829 21.38 140.373 22.292C139.941 23.204 139.725 24.236 139.725 25.388C139.725 26.516 139.941 27.536 140.373 28.448C140.829 29.36 141.453 30.08 142.245 30.608C143.037 31.136 143.949 31.4 144.981 31.4Z" fill="white"/>
</svg>
