<svg width="254" height="92" viewBox="0 0 254 92" fill="none" xmlns="http://www.w3.org/2000/svg">
<path d="M176.205 59.5772C174.271 60.8555 172.014 61.4947 169.435 61.4947C166.915 61.4947 164.687 60.8555 162.753 59.5772C160.819 58.2989 159.295 56.5558 158.181 54.3478C157.126 52.1398 156.598 49.6703 156.598 46.9393C156.598 44.1503 157.126 41.6518 158.181 39.4438C159.295 37.2358 160.819 35.4926 162.753 34.2143C164.687 32.936 166.915 32.2968 169.435 32.2968C172.014 32.2968 174.271 32.936 176.205 34.2143C178.14 35.4926 179.634 37.2358 180.689 39.4438C181.803 41.6518 182.36 44.1503 182.36 46.9393C182.36 49.6703 181.803 52.1398 180.689 54.3478C179.634 56.5558 178.14 58.2989 176.205 59.5772Z" fill="white"/>
<path fill-rule="evenodd" clip-rule="evenodd" d="M193.29 0L175.957 18.9006L195.255 23H208.063L206.593 25.9145L201.708 30.7566L199.165 35.799L194.163 46.9536V64.8659L214.395 76.1469L220.794 78.6842H189.781L182.319 92H141.654V21.4585L128.862 0H193.29ZM190.976 24.1911C189.98 23.2033 188.72 22.7094 187.196 22.7094C185.672 22.7094 184.411 23.2324 183.415 24.2783C182.419 25.2661 181.92 26.5153 181.92 28.0261V28.1665C181.399 27.679 180.812 27.1964 180.162 26.7187C178.638 25.5566 176.821 24.5979 174.711 23.8425C172.6 23.0871 170.285 22.7094 167.765 22.7094C163.837 22.7094 160.262 23.7553 157.038 25.8471C153.814 27.8808 151.235 30.728 149.301 34.3886C147.425 37.9911 146.487 42.1747 146.487 46.9393C146.487 51.6459 147.425 55.8294 149.301 59.4901C151.235 63.0926 153.844 65.9398 157.126 68.0315C160.408 70.0652 164.072 71.0821 168.116 71.0821C170.344 71.0821 172.395 70.7334 174.271 70.0362C176.205 69.2808 177.876 68.3802 179.283 67.3343C180.322 66.5613 181.202 65.7883 181.921 65.0154C181.948 66.4733 182.445 67.7111 183.415 68.7288C184.411 69.7166 185.672 70.2105 187.196 70.2105C188.72 70.2105 189.98 69.7166 190.976 68.7288C191.973 67.6829 192.471 66.4046 192.471 64.8939V28.0261C192.471 26.4572 191.973 25.1789 190.976 24.1911Z" fill="white"/>
<path d="M224.645 61.4947C227.224 61.4947 229.481 60.8555 231.415 59.5772C233.349 58.2989 234.844 56.5558 235.899 54.3478C237.013 52.1398 237.569 49.6703 237.569 46.9393C237.569 44.1503 237.013 41.6518 235.899 39.4438C234.844 37.2358 233.349 35.4926 231.415 34.2143C229.481 32.936 227.224 32.2968 224.645 32.2968C222.124 32.2968 219.897 32.936 217.963 34.2143C216.028 35.4926 214.504 37.2358 213.391 39.4438C212.336 41.6518 211.808 44.1503 211.808 46.9393C211.808 49.6703 212.336 52.1398 213.391 54.3478C214.504 56.5558 216.028 58.2989 217.963 59.5772C219.897 60.8555 222.124 61.4947 224.645 61.4947Z" fill="white"/>
<path fill-rule="evenodd" clip-rule="evenodd" d="M196.591 0L180.62 17.4151L195.514 20.5789H212.014L208.6 27.3486L203.715 32.1908L201.374 36.8325L196.606 47.4674V63.4499L215.452 73.9584L227.588 78.7708L227.135 81.1053H191.219L185.113 92H254V0H196.591ZM242.405 5.71365C243.929 5.71365 245.189 6.20754 246.186 7.19533C247.182 8.18312 247.681 9.46144 247.681 11.0303V64.8939C247.681 66.4046 247.182 67.6829 246.186 68.7288C245.189 69.7166 243.929 70.2105 242.405 70.2105C240.881 70.2105 239.621 69.7166 238.625 68.7288C237.655 67.7111 237.157 66.4733 237.131 65.0154C236.411 65.7883 235.532 66.5613 234.492 67.3343C233.085 68.3802 231.415 69.2808 229.481 70.0362C227.605 70.7334 225.553 71.0821 223.326 71.0821C219.281 71.0821 215.618 70.0652 212.336 68.0315C209.053 65.9398 206.445 63.0926 204.51 59.4901C202.635 55.8294 201.697 51.6459 201.697 46.9393C201.697 42.1747 202.635 37.9911 204.51 34.3886C206.445 30.728 209.024 27.8808 212.248 25.8471C215.471 23.7553 219.047 22.7094 222.974 22.7094C225.495 22.7094 227.81 23.0871 229.92 23.8425C232.03 24.5979 233.847 25.5566 235.371 26.7187C236.022 27.1964 236.608 27.679 237.13 28.1665V11.0303C237.13 9.51954 237.628 8.27028 238.625 7.28249C239.621 6.23659 240.881 5.71365 242.405 5.71365Z" fill="white"/>
<path d="M114.226 61.4947C116.805 61.4947 119.062 60.8555 120.996 59.5772C122.93 58.2989 124.425 56.5558 125.48 54.3478C126.594 52.1398 127.15 49.6703 127.15 46.9393C127.15 44.1503 126.594 41.6518 125.48 39.4438C124.425 37.2358 122.93 35.4926 120.996 34.2143C119.062 32.936 116.805 32.2968 114.226 32.2968C111.705 32.2968 109.478 32.936 107.544 34.2143C105.609 35.4926 104.085 37.2358 102.972 39.4438C101.917 41.6518 101.389 44.1503 101.389 46.9393C101.389 49.6703 101.917 52.1398 102.972 54.3478C104.085 56.5558 105.609 58.2989 107.544 59.5772C109.478 60.8555 111.705 61.4947 114.226 61.4947Z" fill="white"/>
<path fill-rule="evenodd" clip-rule="evenodd" d="M126.026 0L139.212 22.1204V92H114.78L95.0418 68.3148L89.1442 57.7916V34.2763L97.5067 22.4339L110.18 0H126.026ZM131.986 23.581C133.51 23.581 134.77 24.0749 135.767 25.0627C136.763 26.0505 137.262 27.3288 137.262 28.8976V82.3254C137.262 83.8362 136.763 85.0854 135.767 86.0732C134.77 87.1191 133.51 87.6421 131.986 87.6421C130.462 87.6421 129.202 87.1191 128.206 86.0732C127.209 85.0854 126.711 83.8362 126.711 82.3254V65.0165C125.992 65.7891 125.112 66.5617 124.073 67.3343C122.666 68.3802 120.996 69.2808 119.062 70.0362C117.186 70.7334 115.134 71.0821 112.907 71.0821C108.862 71.0821 105.199 70.0652 101.917 68.0315C98.6341 65.9398 96.0257 63.0926 94.0914 59.4901C92.2157 55.8294 91.2778 51.6459 91.2778 46.9393C91.2778 42.1747 92.2157 37.9911 94.0914 34.3886C96.0257 30.728 98.6048 27.8808 101.829 25.8471C105.052 23.7553 108.628 22.7094 112.555 22.7094C115.076 22.7094 117.391 23.0871 119.501 23.8425C121.611 24.5979 123.428 25.5566 124.952 26.7187C125.618 27.2078 126.217 27.702 126.748 28.2014C126.881 26.9988 127.366 25.9816 128.206 25.1499C129.202 24.104 130.462 23.581 131.986 23.581Z" fill="white"/>
<path fill-rule="evenodd" clip-rule="evenodd" d="M107.381 0L95.4356 21.145L86.7019 33.5132V58.4189L93.0159 69.6852L111.612 92H70.4989L72.0573 75.0072L69.6058 60.4261V30.0413L58.1108 0H107.381ZM81.1378 68.7288C82.1343 67.6829 82.6325 66.4046 82.6325 64.8939V28.8976C82.6325 27.3869 82.1343 26.1377 81.1378 25.1499C80.1414 24.104 78.8811 23.581 77.3571 23.581C75.8331 23.581 74.5729 24.104 73.5764 25.1499C72.58 26.1377 72.0817 27.3869 72.0817 28.8976V64.8939C72.0817 66.4046 72.58 67.6829 73.5764 68.7288C74.5729 69.7166 75.8331 70.2105 77.3571 70.2105C78.8811 70.2105 80.1414 69.7166 81.1378 68.7288ZM73.0489 16.957C73.8695 17.5962 75.2763 17.9158 77.2692 17.9158C79.2621 17.9158 80.6982 17.6252 81.5774 17.0442C82.4567 16.405 82.8963 15.2429 82.8963 13.5579V11.9019C82.8963 10.2749 82.486 9.14186 81.6654 8.5027C80.8447 7.86354 79.4087 7.54396 77.3571 7.54396C75.4814 7.54396 74.0747 7.86354 73.1368 8.5027C72.2576 9.08375 71.818 10.2168 71.818 11.9019V13.5579C71.818 15.1848 72.2283 16.3179 73.0489 16.957Z" fill="white"/>
<path d="M50.0234 29.1591C51.606 32.2968 52.3973 35.8122 52.3973 39.7052C52.3973 43.5983 51.606 47.1427 50.0234 50.3385C48.4407 53.4762 46.272 55.9747 43.517 57.8341C40.7621 59.6934 37.5676 60.6231 33.9334 60.6231C30.2993 60.6231 27.1047 59.6934 24.3498 57.8341C21.5949 55.9747 19.4261 53.4762 17.8435 50.3385C16.3195 47.1427 15.5575 43.5983 15.5575 39.7052C15.5575 35.7541 16.3195 32.2096 17.8435 29.072C19.4261 25.9343 21.5949 23.4358 24.3498 21.5764C27.1047 19.717 30.2993 18.7873 33.9334 18.7873C37.5676 18.7873 40.7621 19.717 43.517 21.5764C46.272 23.4358 48.4407 25.9633 50.0234 29.1591Z" fill="white"/>
<path fill-rule="evenodd" clip-rule="evenodd" d="M55.4987 0L67.1635 30.485V60.6265L69.5966 75.0981L68.0465 92H0V0H55.4987ZM67.608 74.1326C66.5529 73.1448 65.4099 72.6509 64.179 72.6509C63.2411 72.6509 62.3619 72.9414 61.5413 73.5225C60.7793 74.1616 59.9 74.8589 58.9036 75.6143C58.083 76.2534 57.1158 76.8345 56.0021 77.3574C54.9471 77.8804 53.6282 78.1419 52.0456 78.1419C50.1113 78.1419 48.3821 77.8223 46.8581 77.1831C45.3927 76.6021 43.9567 75.9339 42.5499 75.1785C41.1431 74.4231 39.6484 73.7259 38.0658 73.0867C37.1703 72.7453 36.1836 72.5041 35.1059 72.3633L40.338 70.4384C42.2722 70.032 44.1232 69.4331 45.891 68.6417C49.5837 67.0147 52.749 64.7777 55.3867 61.9305C58.083 59.0252 60.1638 55.6842 61.6292 51.9073C63.0946 48.1305 63.8273 44.0631 63.8273 39.7052C63.8273 35.3473 63.0946 31.28 61.6292 27.5031C60.1638 23.7263 58.083 20.4143 55.3867 17.5671C52.749 14.6619 49.5837 12.3958 45.891 10.7688C42.2568 9.14186 38.271 8.32838 33.9334 8.32838C29.5959 8.32838 25.61 9.14186 21.9759 10.7688C18.3417 12.3958 15.1765 14.6619 12.4802 17.5671C9.84251 20.4143 7.79097 23.7263 6.32558 27.5031C4.8602 31.28 4.12751 35.3473 4.12751 39.7052C4.12751 44.0631 4.8602 48.1305 6.32558 51.9073C7.79097 55.6842 9.84251 59.0252 12.4802 61.9305C15.1765 64.7777 18.3417 67.0147 21.9759 68.6417C23.6869 69.4076 25.4758 69.9933 27.3428 70.3987L18.6348 73.6097C16.5833 74.365 15.5575 75.8758 15.5575 78.1419C15.5575 79.4202 16.0557 80.6113 17.0522 81.7153C18.0487 82.8193 19.2796 83.3713 20.745 83.3713C22.1517 83.3713 23.2361 83.168 23.9981 82.7612C24.8187 82.4126 25.5514 82.0349 26.1962 81.6282C26.8996 81.2795 27.8081 81.1052 28.9218 81.1052C30.6803 81.1052 32.175 81.4248 33.4059 82.064C34.6368 82.7612 35.9557 83.5166 37.3624 84.3301C38.7692 85.2017 40.557 85.957 42.7257 86.5962C44.8945 87.2934 47.796 87.6421 51.4301 87.6421C53.0714 87.6421 54.8884 87.3806 56.8814 86.8577C58.9329 86.3347 60.8965 85.6084 62.7722 84.6787C64.6479 83.749 66.1719 82.6741 67.3442 81.4539C68.5751 80.2918 69.1906 79.0425 69.1906 77.7061C69.1906 76.3697 68.663 75.1785 67.608 74.1326Z" fill="white"/>
</svg>
