<svg width="40" height="40" viewBox="0 0 40 40" fill="none" xmlns="http://www.w3.org/2000/svg">
<path d="M20 40C31.0457 40 40 31.0457 40 20C40 8.9543 31.0457 0 20 0C8.9543 0 0 8.9543 0 20C0 31.0457 8.9543 40 20 40Z" fill="white"/>
<path fill-rule="evenodd" clip-rule="evenodd" d="M11.0038 7C8.49793 7 6.60913 9.27767 7.07284 11.7402L8.48881 19.2598C8.58092 19.749 8.58092 20.251 8.48881 20.7402L7.07284 28.2598C6.60913 30.7223 8.49794 33 11.0038 33H29.0455C31.698 33 33.6159 30.4653 32.8948 27.9127L30.967 21.0873C30.7661 20.3763 30.7661 19.6237 30.967 18.9127L32.8948 12.0873C33.6159 9.53466 31.698 7 29.0455 7H11.0038ZM25.078 23.9749C24.9473 23.8442 24.798 23.7789 24.63 23.7789C24.4993 23.7789 24.3733 23.8255 24.252 23.9189C24.14 24.0215 24.0047 24.1289 23.846 24.2409C23.7153 24.3342 23.552 24.4275 23.356 24.5209C23.16 24.6142 22.9173 24.6609 22.628 24.6609C22.2827 24.6609 21.9793 24.6095 21.718 24.5069C21.4567 24.4042 21.2 24.2829 20.948 24.1429C20.7053 24.0122 20.4487 23.8955 20.178 23.7929C20.0178 23.7299 19.8419 23.6863 19.6501 23.6619L20.6487 23.3018C20.9578 23.2388 21.2536 23.1459 21.536 23.0229C22.1147 22.7615 22.614 22.4022 23.034 21.9449C23.4633 21.4875 23.7947 20.9555 24.028 20.3489C24.2613 19.7329 24.378 19.0702 24.378 18.3609C24.378 17.6515 24.2613 16.9935 24.028 16.3869C23.7947 15.7709 23.4633 15.2342 23.034 14.7769C22.614 14.3195 22.1147 13.9649 21.536 13.7129C20.9573 13.4515 20.3227 13.3209 19.632 13.3209C18.9507 13.3209 18.3207 13.4515 17.742 13.7129C17.1633 13.9649 16.6593 14.3195 16.23 14.7769C15.81 15.2342 15.4833 15.7709 15.25 16.3869C15.026 16.9935 14.914 17.6515 14.914 18.3609C14.914 19.0702 15.026 19.7329 15.25 20.3489C15.4833 20.9555 15.81 21.4875 16.23 21.9449C16.6593 22.4022 17.1633 22.7615 17.742 23.0229C18.0556 23.1594 18.3842 23.259 18.728 23.3215L17.224 23.8769C16.9533 23.9795 16.818 24.1802 16.818 24.4789C16.818 24.6562 16.8833 24.8195 17.014 24.9689C17.1447 25.1182 17.308 25.1929 17.504 25.1929C17.6907 25.1929 17.8447 25.1602 17.966 25.0949C18.0873 25.0389 18.204 24.9829 18.316 24.9269C18.428 24.8709 18.5727 24.8429 18.75 24.8429C19.0673 24.8429 19.338 24.8989 19.562 25.0109C19.7953 25.1229 20.0333 25.2489 20.276 25.3889C20.5187 25.5289 20.8173 25.6549 21.172 25.7669C21.5267 25.8789 21.9887 25.9349 22.558 25.9349C22.8193 25.9349 23.104 25.8929 23.412 25.8089C23.7293 25.7342 24.028 25.6269 24.308 25.4869C24.5973 25.3469 24.8307 25.1882 25.008 25.0109C25.1947 24.8335 25.288 24.6469 25.288 24.4509C25.288 24.2735 25.218 24.1149 25.078 23.9749ZM22.446 16.4989C22.726 17.0495 22.866 17.6702 22.866 18.3609C22.866 19.0515 22.726 19.6722 22.446 20.2229C22.1753 20.7735 21.7973 21.2075 21.312 21.5249C20.8267 21.8422 20.2667 22.0009 19.632 22.0009C19.0067 22.0009 18.4513 21.8422 17.966 21.5249C17.4807 21.2075 17.1027 20.7735 16.832 20.2229C16.5613 19.6722 16.426 19.0515 16.426 18.3609C16.426 17.6609 16.5613 17.0402 16.832 16.4989C17.1027 15.9482 17.4807 15.5142 17.966 15.1969C18.4513 14.8795 19.0067 14.7209 19.632 14.7209C20.2667 14.7209 20.8267 14.8795 21.312 15.1969C21.7973 15.5142 22.1753 15.9482 22.446 16.4989Z" fill="#3056D3"/>
</svg>
